<?xml version="1.0" encoding="utf-8"?>
<!-- Uploaded to: SVG Repo, www.svgrepo.com, Generator: SVG Repo Mixer Tools -->
<svg width="800px" height="800px" viewBox="0 -56 1136 1136" class="icon"  version="1.1" xmlns="http://www.w3.org/2000/svg"><path d="M241.427692 343.04c7.286154 2.363077 14.769231 3.347692 22.449231 3.150769 39.778462-0.984615 207.163077 0 238.276923 84.086154 0 0 29.341538 44.307692 26.387692 207.163077-2.953846 163.052308-5.513846 223.507692 0.196924 228.233846 5.710769 4.726154 58.486154 41.944615 96.68923 0 0 0 17.526154-4.726154 20.48-86.055384 2.953846-81.526154 0-256.196923 0-256.196924S628.578462 429.292308 903.68 423.384615c5.316923-0.196923 10.633846-0.787692 15.753846-2.166153 25.206154-6.498462 92.16-31.310769 69.316923-109.883077-5.316923-18.707692-18.116923-34.067692-35.052307-43.323077-38.990769-21.070769-121.698462-50.806154-222.523077-0.787693-30.916923 15.36-53.956923 28.553846-71.286154 40.172308-36.627692 24.615385-85.464615 9.846154-104.369231-30.326154-19.101538-40.566154-50.806154-79.950769-103.187692-100.824615C317.046154 122.88 196.726154 127.606154 176.246154 230.006154c-15.753846 77.981538 38.4 104.763077 65.181538 113.033846z" fill="#FFFE9F" /><path d="M582.498462 907.815385c-29.341538 0-55.926154-15.163077-67.741539-24.812308-12.996923-10.633846-12.8-16.541538-9.846154-165.218462 0.393846-23.630769 0.984615-50.412308 1.575385-80.738461 2.56-145.92-21.464615-192-22.843077-194.756923l-1.181539-1.772308-0.984615-2.56c-20.283077-54.744615-129.378462-71.68-217.009231-69.513846-10.043077 0.196923-20.086154-1.181538-29.538461-4.135385-63.803077-19.889231-93.932308-71.68-80.344616-138.830769 7.68-38.596923 28.750769-68.332308 60.652308-85.858461 55.138462-30.523077 142.178462-24.812308 245.169231 15.950769 51.003077 20.086154 89.6 57.895385 115.2 112.049231 6.498462 13.784615 18.313846 23.827692 32.492308 27.766153 13.784615 3.741538 27.766154 1.575385 39.778461-6.498461 19.298462-12.996923 43.52-26.584615 73.846154-41.747692 108.898462-53.956923 198.695385-22.449231 242.609231 1.181538 22.252308 12.012308 38.990769 32.689231 45.883077 56.713846 9.255385 31.704615 7.089231 59.667692-6.301539 83.298462-19.692308 34.855385-57.698462 49.230769-78.769231 54.547692-6.498462 1.772308-13.587692 2.56-20.676923 2.756923-157.341538 3.347692-209.723077 35.84-226.855384 54.941539-8.664615 9.649231-9.452308 16.935385-9.452308 19.101538l0.787692 2.363077-0.590769 0.787692c0.196923 7.089231 2.953846 176.049231 0 257.378462-2.166154 57.895385-11.618462 91.963077-29.144615 103.384615-17.92 17.92-37.809231 24.221538-56.713846 24.221539z m-34.461539-55.926154c11.815385 7.483077 40.369231 21.267692 61.046154-1.575385l4.529231-4.923077c2.756923-5.710769 8.467692-23.04 10.043077-66.953846 2.756923-76.406154 0.196923-237.883077 0-253.636923-0.787692-7.68-0.787692-27.766154 17.132307-50.215385 36.824615-46.08 125.046154-70.892308 262.104616-73.846153 3.741538 0 7.483077-0.590769 10.830769-1.378462 11.421538-2.953846 39.187692-12.012308 51.2-33.28 7.286154-12.996923 8.073846-28.750769 2.363077-48.64-3.741538-12.603077-12.603077-23.433846-24.221539-29.735385-36.430769-19.692308-111.064615-45.686154-202.24-0.590769-28.750769 14.178462-51.2 26.978462-68.726153 38.793846-22.449231 15.163077-50.018462 19.692308-76.012308 12.406154-26.584615-7.483077-48.64-26.190769-60.652308-51.593846-20.48-43.52-51.2-73.649231-91.372308-89.6-89.206154-35.249231-164.824615-41.944615-207.753846-18.313846-20.676923 11.421538-33.28 29.538462-38.4 55.532308-9.058462 44.701538 7.876923 74.043077 50.018462 87.04 4.923077 1.575385 10.043077 2.166154 15.556923 2.166153 51.593846-1.181538 221.538462 2.166154 258.756923 96.689231 7.089231 12.8 31.310769 67.741538 28.553846 217.403077-0.590769 30.326154-0.984615 57.304615-1.575384 80.935385-1.575385 68.529231-2.363077 116.578462-1.181539 133.316923z m64.196923-3.938462z" fill="#493B4E" /><path d="M371.003077 203.815385c-32.689231-11.421538-66.166154-15.36-100.627692-11.618462-10.436923 1.181538-10.633846 17.92 0 16.738462 33.083077-3.544615 64.787692 0.196923 96.295384 11.027692 10.043077 3.544615 14.375385-12.8 4.332308-16.147692z" fill="#493B4E" /><path d="M372.775385 198.498462c-30.916923-13.193846-64.787692-10.24-97.87077-9.846154-21.267692 0.196923-21.464615 33.673846 0 33.673846 25.403077-0.196923 57.107692-4.923077 81.132308 5.316923 19.298462 8.270769 36.233846-20.676923 16.738462-29.144615zM409.6 207.163077c-21.267692 0-21.464615 33.673846 0 33.673846 21.464615-0.196923 21.464615-33.673846 0-33.673846z" fill="#FFFFFF" /></svg>